<svg xmlns="http://www.w3.org/2000/svg" viewBox="0 0 479.44 91.861"><defs><style>.a{fill:#ec008c;}.b{fill:#001722;}</style></defs><g transform="translate(0.009)"><g transform="translate(-0.009)"><path class="a" d="M280.111,28.994c3.319-3.825,10.006-12.78,17.657-8.595,2.7,1.489,4.224,4.331,4.8,8.225,3.037-4.468,10.571-8.527,16.489-4.643,6.745,4.419,5.227,14.688,7.329,22.9.565,1.752,10.259-1.947,14.2-4.419,1.168-.749,3.709-2.248,4.2-3.29.623-1.343.555-3.767.915-5.694.3-1.655.672-3.426,1.041-5,.925-3.893,1.684-10.152,5.383-10.707a4.078,4.078,0,0,1,4.8,3.134c.253,1.869-.487,3.3-.973,5.071a71.058,71.058,0,0,0-2.92,14.756c-.185,2.862-.331,5.607.818,7.427s6.872,0,9.208-1.158c2.356-9.383,4.867-22.679,11.174-28.724,4.867-4.633,13.87-2.92,14.007,5.217.1,6.414-3.417,12.381-6.161,17.083-3.232,5.548-7.222,8.877-11.534,11.894-1.071,4.731-1.694,9.8-3.115,14.182,2.745,1.518,8.974,2.56,8.011,7.154a4.273,4.273,0,0,1-3.913,3.144c-3.017.127-6.376-2.482-7.621-2.784-4.2,7.31-10.376,11.087-20.567,11.466-9.461.35-19.36-3.7-20.733-11.778a10.581,10.581,0,0,1,1.042-5.519c4.945-10.542,24.714-8.916,36.014-4.439a65.674,65.674,0,0,0,1.645-7.436c-7.388,1.295-14.162.224-15.759-7.281-6.064,3.017-10.98,5.928-17.521,6.356-9.451.623-10.415-7.787-11.33-16.3-.389-3.592-.243-8.176-3.066-8.566-2.521-.341-4.351,2.638-5.568,4.429-2.862,4.2-4.215,7.5-6.337,12.878-1.071,2.716-1.781,5.928-2.92,7.047-2.219,2.171-6.376.72-6.687-2.141a19.661,19.661,0,0,1,.973-6.161c1.694-6.113,2.784-19.788.477-19.078-3.3,1.051-5.2,4.088-7.154,6.814-4.672,6.453-8.575,14.435-12,22.65-1.129,2.706-1.626,4.993-4.76,5.12-6.638.273-3.475-9.033-2.443-13.033-4.546,3.066-8.828,6.706-14.318,6.6-6.668-.136-8.04-6.4-8.76-12.6-.37-3.329-.623-9.15-2.706-9.364-3.163-.331-5.139,1.567-6.736,3.017-3.893,3.514-7.076,8.76-9.8,14.036-1.557,3-2.083,5.772-5.509,5.694a3.747,3.747,0,0,1-3.738-3.533,23.363,23.363,0,0,1,.847-5.49c1.129-5.256,1.295-14.6-1.684-15.077-1.723-.331-7.32,6.473-10.191,11.174a117.5,117.5,0,0,0-5.84,10.707c-.545,1.149-1.061,2.667-1.772,3.29A4.146,4.146,0,0,1,190.26,55.2c-.185-1.781.477-4.351.973-6.3,1.441-5.772,2.92-11.476,4.351-17.073-5.052,3.047-7.261,4.779-11.476,6.57.253,13.024-8.965,23.059-22.679,23.078-6.814,0-12.712-2.735-15.369-8.848-6.132,3.446-13.452,7.573-22.2,6.677a9.461,9.461,0,0,1-5.169-2.326c-5.908-5.568,0-23.215-2.015-23.419-3.163-.263-5.655,2.667-7.485,4.867a84.973,84.973,0,0,0-9.812,15.243c-2.346,4.37-2.54,8.05-7.3,7.3a3.67,3.67,0,0,1-2.92-3.524c0-1.48.973-3.757,1.528-5.568,2.453-8.653,3.65-17.871,1.557-17.579-3.893.555-5.84,3.436-8.205,6.025-5.9,6.492-9.276,13.267-13.754,22.387-1.178,2.414-2.064,4.37-4.74,4.429a3.942,3.942,0,0,1-3.893-3.368c-.214-1.616.7-4.1,1.207-5.976,2.5-9.081,4.8-17.6,7.466-27.1.886-3.144,1.762-8.167,3.582-9.841,2.317-2.122,6.745-.623,6.814,2.433,0,3.3-2.443,9.782-2.842,11.5A50.088,50.088,0,0,1,83.4,29.6a16.314,16.314,0,0,1,7.466-3.4c6.424-.72,9.354,3.163,10.2,8.838,4.02-3.679,7.514-11.155,16.148-9.734a8.819,8.819,0,0,1,7.923,8.838c.263,6.444-1.8,12.605-.779,16.927,1.674,1.518,14.26-2.044,20.441-7.6a24.85,24.85,0,0,1,13.549-19.915c3.339-1.781,9.558-4.614,11.486,0,6.21-1.664,10.8,2.219,12.469,6.6a129.086,129.086,0,0,0,14.6-9.393c1.752-1.285,3.348-3.436,6.054-3.105,5.11.623,2.92,7.69,1.7,11.8,2.92-2.268,6.045-6.142,11.8-5.276,5.13.779,7.359,4.964,8.468,10.707,3.816-3.494,7.495-8.595,14.279-9.286,12.654-1.3,12.274,10.921,13.89,21.833.273,1.772,11.739-6.152,17.258-11.992.7-3.971,2.1-9.9,3.076-14.25.72-3.212,1.09-6.152,4.536-6.278,7.047-.263,3.455,8.76,2.141,14.065m93.832,8.858a37.534,37.534,0,0,0,5.9-13.189c-3.105,3.163-4.721,8.634-5.9,13.189M153.106,47.118c.438,4.2,3.553,5.84,7.436,6.064,8.468.555,14.211-4.964,15.214-12.109-8.41,1.226-14.075-2.492-12.936-10.415-5.4,2.492-10.483,8.994-9.734,16.46m17.521-14.279c-.078.5,3.67.506,3.728.156.438-1.684-3.747-2.219-3.728-.156M338.58,68.678c-2.55.156-7.407,1.441-7.68,3.893-.088.749,1.188,1.947,1.82,2.365,5.558,3.971,15.846,2.92,21.317-1.139.837-.613,2.453-2.336,1.655-2.57a44.648,44.648,0,0,0-17.112-2.54" transform="translate(-1.633 -0.397)"/><path class="a" d="M482.446,69.233c.594-2.278,1.392-5,2.92-6.58a18.591,18.591,0,0,1-2.92,6.58m-9.919,17.9c-2.725,2.005-7.845,2.55-10.619.574-.311-.224-.973-.808-.915-1.187.136-1.217,2.56-1.859,3.835-1.947a22.319,22.319,0,0,1,8.527,1.265c.4.117-.409.973-.827,1.275m-18.65-12.42c-1.947-.127-3.485-.973-3.708-3.017a8.244,8.244,0,0,1,2.92-6.95h0s.146-.127.389-.311l.107-.088c1.08-.818,3.767-2.54,5.9-1.518a3.621,3.621,0,0,1,2.112,2.92c-.068,1.217-.1,2.21-.107,2.92a4.5,4.5,0,0,1-.107.613h0a6.813,6.813,0,0,1-7.485,5.48m-21.541,0c-1.947-.127-3.485-.973-3.709-3.017a8.264,8.264,0,0,1,2.92-6.95h0s.146-.127.389-.311l.107-.088c1.09-.818,3.767-2.54,5.9-1.518a3.621,3.621,0,0,1,2.112,2.92c-.068,1.217-.1,2.21-.107,2.92a3.374,3.374,0,0,1-.107.613h0a6.814,6.814,0,0,1-7.485,5.48m-14.7-5.48a6.813,6.813,0,0,1-7.514,5.383c-1.947-.127-3.494-.973-3.708-3.017a8.244,8.244,0,0,1,2.92-6.95h0a4.716,4.716,0,0,1,.389-.311l.107-.088c1.08-.818,3.767-2.54,5.9-1.518,2.648,1.275,2.317,4.1,1.947,6.395ZM387.5,74.791c-1.947-.127-3.494-.973-3.708-3.017a8.244,8.244,0,0,1,2.92-6.95h0s.136-.127.38-.311l.117-.088c1.08-.818,3.767-2.54,5.9-1.518a3.621,3.621,0,0,1,2.112,2.92c-.068,1.217-.1,2.21-.107,2.92L395,69.37h0a6.814,6.814,0,0,1-7.475,5.48m95.127-15.223c-3.154,3.017-4.4,9.646-5.568,14.318-1.168.584-3.981,1.411-4.594.584s-.5-2.278-.409-3.709a35.489,35.489,0,0,1,1.46-7.349,5.724,5.724,0,0,0,.487-2.531,2.015,2.015,0,0,0-2.365-1.548c-1.84.282-2.219,3.407-2.687,5.344-.185.779-.36,1.664-.516,2.492-.049.273-.107.535-.175.808a8.237,8.237,0,0,1-3.689,4.867,10.7,10.7,0,0,0,.72-1.947,1.918,1.918,0,0,1,.1-.457,2.083,2.083,0,0,0,.136-.74v-.088a12.513,12.513,0,0,0,.088-2.92c.234-5.032,1.158-15.116,4.731-20a1.989,1.989,0,0,0-3.212-2.346c-2.92,4.01-4.322,10.551-4.984,15.992a4.867,4.867,0,0,0-3.563-.3c-.973-2.3-4.059-.886-5.723,0a12.381,12.381,0,0,0-6.551,8.76.778.778,0,0,0-.078.156c-.9,2.511-2.171,3.718-3.378,4.273a10.84,10.84,0,0,0,.9-2.287,2.56,2.56,0,0,1,.1-.457,2.044,2.044,0,0,0,.136-.74V69.71a12.658,12.658,0,0,0,.088-2.92c.136-5.285,1.109-15.33,4.643-20.217a1.985,1.985,0,0,0-3.2-2.346c-2.92,4.01-4.331,10.551-4.993,15.992a4.867,4.867,0,0,0-3.562-.3c-.973-2.3-4.059-.886-5.723,0a12.381,12.381,0,0,0-6.7,9.656,11.8,11.8,0,0,0,.516,4.468c-1.441.711-2.229.72-2.492.574s-.788-1.1-.74-3.5c.117-6.152,2.463-9.081,2.531-9.169a1.987,1.987,0,1,0-3.008-2.6,11.341,11.341,0,0,0-1.353,2.161,4.925,4.925,0,0,0-5.208-1.6c-.973-2.3-4.059-.886-5.723,0a12.4,12.4,0,0,0-6.638,9.227,6.551,6.551,0,0,1-3.125,4.2,5.383,5.383,0,0,1-1.888.5,11.017,11.017,0,0,0,1.353-3.066,2.532,2.532,0,0,1,.088-.457,1.858,1.858,0,0,0,.146-.74v-.088a13.161,13.161,0,0,0,.088-2.92c.234-5.032,1.158-15.107,4.731-19.993a1.989,1.989,0,1,0-3.212-2.346c-2.92,4.01-4.322,10.551-4.984,15.992a4.867,4.867,0,0,0-3.562-.3c-.973-2.3-4.059-.886-5.723,0a12.41,12.41,0,0,0-6.706,9.656c-.078,1.275-.068,4.059,1.285,5.957.136.195.243.37.331.526A8.264,8.264,0,0,0,387.9,78.8a12.06,12.06,0,0,0,5.714-1.392,13.013,13.013,0,0,0,3.241.438,9.617,9.617,0,0,0,4.176-.905,8.692,8.692,0,0,0,2.424-1.733,2.621,2.621,0,0,0,.214.321c.136.195.243.37.331.526a8.283,8.283,0,0,0,6.638,2.745,11.31,11.31,0,0,0,7.972-3.056,4.76,4.76,0,0,0,2.034,2.336,4.7,4.7,0,0,0,2.326.594,9.734,9.734,0,0,0,4.5-1.4,9.072,9.072,0,0,0,5.344,1.528,11.885,11.885,0,0,0,6.015-1.567,8.439,8.439,0,0,0,1.947.234,8.76,8.76,0,0,0,6.21-2.55,4.954,4.954,0,0,0,.38.613c.136.195.243.37.331.526a8.283,8.283,0,0,0,6.638,2.745,11.777,11.777,0,0,0,6.375-1.781,2.152,2.152,0,0,0,.516.175,6.522,6.522,0,0,0,.973.078,9.305,9.305,0,0,0,6.045-2.4h0c.8,3.738,4.166,4.273,7.855,3.621a32.412,32.412,0,0,1-.818,3.709c-5.626-2.229-15.477-3.037-17.949,2.21a5.373,5.373,0,0,0-.516,2.755c.681,4.02,5.616,6.045,10.327,5.84,5.081-.195,8.167-2.073,10.25-5.714.623.146,2.3,1.45,3.806,1.382a2.122,2.122,0,0,0,1.966-1.528c.487-2.287-2.618-2.8-3.991-3.563.711-2.18,1.022-4.711,1.557-7.067a18.241,18.241,0,0,0,5.743-5.928c1.372-2.336,3.124-5.315,3.066-8.507-.058-4.069-4.555-4.915-6.969-2.609" transform="translate(-10.104 -1.156)"/><path class="b" d="M31.566,46.433c-.234,1.295-.263,1.7-.419,3.144-.477,4.516,0,10.405,4.779,12.479,2.978,1.295,6.814.428,9.734-.253a63,63,0,0,0,13.1-4.867c4.643-2.2,1.236-9.412-3.426-7.2-3.251,1.548-8.76,4.935-14.6,4.935-1.528,0-1.947-3.387-1.139-7.884,1.548-8.313,4.662-16.547,7.952-24.334,2.044-4.867-5.227-7.242-7.485-2.774-3.631,7.174-7.845,14.2-13.393,20.071-6.716,7.144-15.146,12-24.334,15.272-4.867,1.713-1.382,8.906,3.417,7.2A65.527,65.527,0,0,0,31.469,46.092Z" transform="translate(0.009 -0.461)"/><path class="b" d="M55.033,6.882A6.882,6.882,0,1,1,48.152,0a6.882,6.882,0,0,1,6.882,6.882" transform="translate(-1.091)"/><path class="a" d="M424.549,37.385c-.915-.058-1.645-.438-1.752-1.431a3.893,3.893,0,0,1,1.382-3.29h0l.175-.146h.049c.516-.389,1.791-1.207,2.8-.72a1.7,1.7,0,0,1,.973,1.363c0,.574,0,1.042,0,1.372l-.058.292h0a3.241,3.241,0,0,1-3.543,2.6m-16.606-2.463a3.232,3.232,0,0,1-3.533,2.589c-.925-.058-1.655-.438-1.762-1.431a3.894,3.894,0,0,1,1.392-3.28h0l.175-.146h.058c.516-.389,1.781-1.2,2.794-.72,1.256.6,1.1,1.947.9,3.027Zm24.169-12.206a.973.973,0,0,0-1.314.2c-1.363,1.859-2.025,4.867-2.346,7.417-1.752-1.45-3.271-.409-4.283-.136a2.093,2.093,0,0,0-2.385,1.187,8.361,8.361,0,0,0-.915,3.533,5.837,5.837,0,0,0,.136,1.742c-1.08.847-2.015,1.4-1.879.973a2.2,2.2,0,0,1,.088-.292,9.5,9.5,0,0,0,.72-4.964v-.214a3.114,3.114,0,0,0-.36-.973,1.888,1.888,0,0,0-2.015-.9,3.952,3.952,0,0,0-1.762.808,11.271,11.271,0,0,0-1.3,1.217,13.3,13.3,0,0,0,.672-2.716.973.973,0,0,0-1.6-.574,6.112,6.112,0,0,0-.847,2.326c-.594,2.083-1.1,3.971-1.645,5.947-.409.156-.652.146-.75.088s-.38-.516-.35-1.655a7.4,7.4,0,0,1,1.187-4.341.939.939,0,0,0-1.421-1.226,5.24,5.24,0,0,0-.642,1.022,2.317,2.317,0,0,0-2.463-.75c-.448-1.09-1.947-.428-2.706,0a5.84,5.84,0,0,0-3.173,4.565,4.721,4.721,0,0,0,.6,2.823,1.5,1.5,0,0,1,.156.253,3.893,3.893,0,0,0,3.144,1.295,5.354,5.354,0,0,0,3.777-1.45,2.258,2.258,0,0,0,.973,1.11,2.2,2.2,0,0,0,1.1.282h.117c1.129,0,1.518-.185,1.791-.428a4.867,4.867,0,0,0,1.168-2.093,13.627,13.627,0,0,1,2.073-3.144,4.175,4.175,0,0,1,2.151-1.45c.5-.068.214,2.112-.35,4.147-.078.292-.214.633-.292.925-.263.973-.341,1.947.37,2.5a1.411,1.411,0,0,0,.9.311c.808,0,1.9-.574,3.485-1.81a4.079,4.079,0,0,0,2.823.973,5.616,5.616,0,0,0,2.92-.8,5.383,5.383,0,0,0,3.339-.866.943.943,0,1,0-.973-1.616,4.783,4.783,0,0,1-.438.234,4.867,4.867,0,0,0,.263-.749v-.214a.974.974,0,0,0,.068-.35h0a6.758,6.758,0,0,0,0-1.382c.107-2.385.545-7.154,2.239-9.471a.973.973,0,0,0-.2-1.314" transform="translate(-10.667 -0.602)"/></g></g></svg>