<svg xmlns="http://www.w3.org/2000/svg" xmlns:xlink="http://www.w3.org/1999/xlink" viewBox="0 0 60.12 22.333"><defs><style>.a{fill:none;}.b{clip-path:url(#a);}.c{fill:#60cbea;}.d{fill:#ea0b8c;}</style><clipPath id="a"><rect class="a" width="60.12" height="22.333"/></clipPath></defs><g transform="translate(0 0)"><g class="b"><path class="c" d="M36.506,15.668a3.22,3.22,0,0,1-3.494,3.419,2,2,0,0,1-2.26-2.071c0-1.348.723-1.913,2.952-2.258,1.837-.282,2.107-.345,2.8-.784Zm3.857,1.624V16.139l.028-2.008.03-2.2c0-.282.03-.564.03-.849,0-2.233-.27-2.98-1.3-3.857a7.816,7.816,0,0,0-5.12-1.444c-4.217,0-6.5,1.726-6.747,5.076h3.772c.272-1.7,1.025-2.292,2.863-2.292,1.776,0,2.619.66,2.619,2.008,0,1.194-.39,1.421-3.522,1.827A19.126,19.126,0,0,0,29.859,13a4.156,4.156,0,0,0-3.194,4.2,5.652,5.652,0,0,0,.108,1.106c-.2.016-.378.022-.558.022-1.506,0-1.746-.313-1.746-2.195V8.984h2.94V6.192h-2.98V1.61H20.451V6.192h-10l-1.827,6.18a44.2,44.2,0,0,0-1.3,5.177,44.806,44.806,0,0,0-1.265-5.279L4.2,6.18H0L5.059,21.346H9.526L14.212,6.931V21.346h3.981V9.016h2.258v7a9.646,9.646,0,0,0,.331,3.545c.514,1.421,1.779,1.977,4.186,1.977a18.024,18.024,0,0,0,2.44-.152V19.874a4.962,4.962,0,0,0,4.339,1.88A6.436,6.436,0,0,0,36.565,19.9a3.451,3.451,0,0,0,.272,1.444h4.036a10.063,10.063,0,0,1-.512-4.046" transform="translate(0 -1.283)"/><path class="d" d="M72.376,2.276A2.278,2.278,0,1,1,70.1,0a2.278,2.278,0,0,1,2.276,2.276" transform="translate(-54.051 0)"/><path class="c" d="M222.731,67.437h2.2V64.572c0-1.852.9-2.735,2.359-2.735h.116v-2.3a2.4,2.4,0,0,0-2.475,1.707V59.683h-2.2Zm-5.019-2.461a1.771,1.771,0,0,1-1.88-1.793v-.03a1.89,1.89,0,0,1,3.774,0v.03a1.791,1.791,0,0,1-1.894,1.793m-.26,4.8a4.55,4.55,0,0,0,3.342-1.042,4.161,4.161,0,0,0,.983-3.045v-6.01h-2.2V60.7a3.142,3.142,0,0,0-2.5-1.157,3.421,3.421,0,0,0-3.451,3.616v.03a3.406,3.406,0,0,0,3.451,3.616,3.028,3.028,0,0,0,2.532-1.259v.378c0,1.389-.709,2.113-2.213,2.113a5.076,5.076,0,0,1-2.617-.709l-.753,1.64a7.374,7.374,0,0,0,3.429.812M209.9,67.437h2.345V65.122H209.9Z" transform="translate(-167.285 -47.447)"/></g></g></svg>